<svg width="97" height="96" viewBox="0 0 97 96" fill="none" xmlns="http://www.w3.org/2000/svg">
<path fill-rule="evenodd" clip-rule="evenodd" d="M48.1576 8C26.1053 8 8.20776 25.92 8.20776 48C8.20776 70.08 26.1053 88 48.1576 88C70.2099 88 88.1075 70.08 88.1075 48C88.1075 25.92 70.2099 8 48.1576 8ZM62.5796 33.3603C66.8542 33.3603 70.2899 36.8003 70.2899 41.0803C70.2899 45.3603 66.8542 48.8003 62.5796 48.8003C58.3049 48.8003 54.8692 45.3603 54.8692 41.0803C54.8293 36.8003 58.3049 33.3603 62.5796 33.3603ZM38.6096 27.04C43.8031 27.04 48.0378 31.28 48.0378 36.48C48.0378 41.68 43.8031 45.92 38.6096 45.92C33.4161 45.92 29.1814 41.68 29.1814 36.48C29.1814 31.24 33.3762 27.04 38.6096 27.04ZM38.6095 63.56V78.56C29.0215 75.56 21.4311 68.16 18.0753 58.72C22.27 54.24 32.7369 51.96 38.6095 51.96C40.7268 51.96 43.4035 52.28 46.2 52.84C39.6482 56.32 38.6095 60.92 38.6095 63.56ZM48.1575 80C47.0788 80 46.0401 79.96 45.0014 79.84V63.56C45.0014 57.88 56.7467 55.04 62.5794 55.04C66.854 55.04 74.2447 56.6 77.9201 59.64C73.246 71.52 61.7005 80 48.1575 80Z" fill="#F2C94C"/>
</svg>
