<svg width="17" height="22" viewBox="0 0 17 22" fill="none" xmlns="http://www.w3.org/2000/svg">
<path d="M6.30469 17H2.30469V15H6.30469V17ZM6.30469 13H2.30469V11H6.30469V13ZM6.30469 0V1H2.30469C1.19469 1 0.304688 1.89 0.304688 3V19C0.304688 19.5304 0.515401 20.0391 0.890474 20.4142C1.26555 20.7893 1.77425 21 2.30469 21H6.30469V22H8.30469V0H6.30469ZM16.3047 7V19C16.3047 20.11 15.4147 21 14.3047 21H10.3047V19H14.3047V10H10.3047V8H14.8047L10.3047 3.5V1L16.3047 7ZM12.3047 13H10.3047V11H12.3047V13ZM12.3047 17H10.3047V15H12.3047V17Z" fill="#2F80ED"/>
</svg>
