<svg width="97" height="96" viewBox="0 0 97 96" fill="none" xmlns="http://www.w3.org/2000/svg">
<path fill-rule="evenodd" clip-rule="evenodd" d="M59.2092 10.36C57.6911 8.84 55.6537 8 53.5364 8H24.8923C20.4978 8 16.9023 11.6 16.9023 16V80C16.9023 84.4 20.4579 88 24.8524 88H72.8321C77.2266 88 80.8221 84.4 80.8221 80V35.32C80.8221 33.2 79.9832 31.16 78.4651 29.68L59.2092 10.36ZM60.8472 72H36.8773C34.68 72 32.8823 70.2 32.8823 68C32.8823 65.8 34.68 64 36.8773 64H60.8472C63.0444 64 64.8422 65.8 64.8422 68C64.8422 70.2 63.0444 72 60.8472 72ZM60.8472 56H36.8773C34.68 56 32.8823 54.2 32.8823 52C32.8823 49.8 34.68 48 36.8773 48H60.8472C63.0444 48 64.8422 49.8 64.8422 52C64.8422 54.2 63.0444 56 60.8472 56ZM52.8572 32V14L74.8296 36H56.8522C54.6549 36 52.8572 34.2 52.8572 32Z" fill="#F2C94C"/>
</svg>
