<svg width="24" height="24" viewBox="0 0 24 24" fill="none" xmlns="http://www.w3.org/2000/svg">
<circle cx="12" cy="12" r="9" stroke="#2C2E3F" stroke-width="2"/>
<path fill-rule="evenodd" clip-rule="evenodd" d="M15.61 8.33984C16.68 8.33984 17.54 9.19984 17.54 10.2698C17.54 11.3398 16.68 12.1998 15.61 12.1998C14.54 12.1998 13.68 11.3398 13.68 10.2698C13.67 9.19984 14.54 8.33984 15.61 8.33984Z" fill="#2C2E3F"/>
<path fill-rule="evenodd" clip-rule="evenodd" d="M9.61 6.75977C10.91 6.75977 11.97 7.81977 11.97 9.11977C11.97 10.4198 10.91 11.4798 9.61 11.4798C8.31 11.4798 7.25 10.4198 7.25 9.11977C7.25 7.80977 8.3 6.75977 9.61 6.75977Z" fill="#2C2E3F"/>
<path fill-rule="evenodd" clip-rule="evenodd" d="M9.60997 15.8902V19.6402C7.20997 18.8902 5.30997 17.0402 4.46997 14.6802C5.51997 13.5602 8.13997 12.9902 9.60997 12.9902C10.14 12.9902 10.81 13.0702 11.51 13.2102C9.86997 14.0802 9.60997 15.2302 9.60997 15.8902Z" fill="#2C2E3F"/>
<path fill-rule="evenodd" clip-rule="evenodd" d="M12 19.9998C11.73 19.9998 11.47 19.9898 11.21 19.9598V15.8898C11.21 14.4698 14.15 13.7598 15.61 13.7598C16.68 13.7598 18.53 14.1498 19.45 14.9098C18.28 17.8798 15.39 19.9998 12 19.9998Z" fill="#2C2E3F"/>
</svg>
