<svg width="24" height="24" viewBox="0 0 24 24" fill="none" xmlns="http://www.w3.org/2000/svg">
<path d="M20.9992 9.84841L21 18.7181C21 19.1638 20.9536 19.3255 20.8664 19.4884C20.7793 19.6514 20.6514 19.7793 20.4884 19.8664C20.3255 19.9536 20.1638 20 19.7181 20H15.2819C14.8362 20 14.6745 19.9536 14.5116 19.8664C14.3486 19.7793 14.2207 19.6514 14.1336 19.4884C14.0464 19.3255 14 19.1638 14 18.7181V14.2819C14 13.8362 13.9536 13.6745 13.8664 13.5116C13.7793 13.3486 13.6514 13.2207 13.4884 13.1336C13.3255 13.0464 13.1638 13 12.7181 13H11.2819C10.8362 13 10.6745 13.0464 10.5116 13.1336C10.3486 13.2207 10.2207 13.3486 10.1336 13.5116C10.0464 13.6745 10 13.8362 10 14.2819V18.7181C10 19.1638 9.95359 19.3255 9.86643 19.4884C9.77928 19.6514 9.65139 19.7793 9.48842 19.8664C9.32546 19.9536 9.16382 20 8.71806 20H4.28194C3.83618 20 3.67454 19.9536 3.51158 19.8664C3.34861 19.7793 3.22072 19.6514 3.13357 19.4884C3.04641 19.3255 3 19.1638 3 18.7181V10.0466C3 9.21007 3.03626 8.91642 3.12103 8.59316C3.20581 8.2699 3.3391 7.98533 3.53316 7.71326L3.63288 7.58017C3.80691 7.36036 4.0367 7.13609 4.5722 6.68984L11.1575 1.20211C11.465 0.945836 11.5992 0.879587 11.7594 0.836003C11.9195 0.792418 12.0805 0.792418 12.2406 0.836003C12.4008 0.879587 12.535 0.945836 12.8425 1.20211L19.4278 6.68984C20.0704 7.22534 20.2728 7.44119 20.4668 7.71326C20.6609 7.98533 20.7942 8.2699 20.879 8.59316C20.9567 8.88948 20.9936 9.16092 20.9992 9.84841Z" fill="#F2C94C"/>
</svg>
