<svg width="142" height="22" viewBox="0 0 142 22" fill="none" xmlns="http://www.w3.org/2000/svg">
<path d="M12.2898 7H17.5795C17.5597 3.00284 14.4773 0.357954 9.54545 0.357954C4.70312 0.357954 1.28267 2.96307 1.3125 6.84091C1.30256 10.0227 3.50994 11.7926 7.11932 12.5682L9.14773 13.0057C11.4148 13.5028 12.1903 14.0696 12.2102 14.9943C12.1903 15.9986 11.2756 16.7045 9.50568 16.7045C7.38778 16.7045 6.13494 15.7102 6.04545 13.8409H0.795455C0.815341 18.9517 4.27557 21.2386 9.58523 21.2386C14.7457 21.2386 17.8381 19.0114 17.858 14.9943C17.8381 11.892 15.9886 9.71449 11.4943 8.75L9.82386 8.39205C7.89489 7.98438 7.02983 7.41761 7.07955 6.44318C7.08949 5.54829 7.83523 4.89204 9.54545 4.89204C11.3352 4.89204 12.1804 5.67756 12.2898 7ZM38.0282 10.8182C38.0282 4.01704 33.6532 0.357954 28.1248 0.357954C22.5566 0.357954 18.2214 4.01704 18.2214 10.8182C18.2214 17.5795 22.5566 21.2784 28.1248 21.2784C33.6532 21.2784 38.0282 17.6193 38.0282 10.8182ZM32.3407 10.8182C32.3407 14.4773 30.8691 16.4659 28.1248 16.4659C25.3805 16.4659 23.9089 14.4773 23.9089 10.8182C23.9089 7.15909 25.3805 5.17045 28.1248 5.17045C30.8691 5.17045 32.3407 7.15909 32.3407 10.8182ZM38.9261 21H52.6875V16.5455H44.4545V0.636363H38.9261V21ZM58.7906 0.636363H53.2622V21H58.7906V0.636363ZM67.5859 21C73.7904 21 77.7279 17.1818 77.7279 10.8182C77.7279 4.45454 73.7904 0.636363 67.5063 0.636363H59.7506V21H67.5859ZM65.279 16.3068V5.32954H67.2279C70.4097 5.32954 72.1597 6.5625 72.1597 10.8182C72.1597 15.0739 70.4097 16.3068 67.387 16.3068H65.279ZM86.0633 21C92.2678 21 95.7678 17.142 95.7678 10.7784C95.7678 4.45454 92.2678 0.636363 86.3417 0.636363H79.7792V21H86.0633ZM82.2451 18.8125V2.82386H86.1826C90.9553 2.82386 93.3815 5.84659 93.3815 10.7784C93.3815 15.75 90.9553 18.8125 85.9042 18.8125H82.2451ZM98.1224 21L100.171 15.233H108.404L110.452 21H113.037L105.56 0.636363H103.014L95.5372 21H98.1224ZM100.946 13.0455L104.208 3.85795H104.367L107.628 13.0455H100.946ZM111.056 2.82386H117.46V21H119.926V2.82386H126.329V0.636363H111.056V2.82386ZM126.931 21L128.98 15.233H137.213L139.261 21H141.846L134.369 0.636363H131.823L124.346 21H126.931ZM129.755 13.0455L133.017 3.85795H133.176L136.437 13.0455H129.755Z" fill="#141517"/>
</svg>
