<svg width="24" height="24" viewBox="0 0 24 24" fill="none" xmlns="http://www.w3.org/2000/svg">
<path d="M2.85902 2.877L15.429 1.082C15.5 1.07182 15.5723 1.07702 15.641 1.09723C15.7098 1.11744 15.7734 1.15219 15.8275 1.19913C15.8817 1.24608 15.9251 1.30411 15.9549 1.36931C15.9846 1.4345 16 1.50534 16 1.577V22.423C16 22.4946 15.9846 22.5653 15.9549 22.6304C15.9252 22.6955 15.8819 22.7535 15.8279 22.8004C15.7738 22.8474 15.7103 22.8821 15.6417 22.9024C15.5731 22.9227 15.5009 22.928 15.43 22.918L2.85802 21.123C2.61964 21.0891 2.40152 20.9702 2.24371 20.7884C2.08591 20.6065 1.99903 20.3738 1.99902 20.133V3.867C1.99903 3.62621 2.08591 3.39351 2.24371 3.21164C2.40152 3.02978 2.61964 2.91095 2.85802 2.877H2.85902ZM4.00002 4.735V19.265L14 20.694V3.306L4.00002 4.735ZM17 19H20V5H17V3H21C21.2652 3 21.5196 3.10536 21.7071 3.29289C21.8947 3.48043 22 3.73478 22 4V20C22 20.2652 21.8947 20.5196 21.7071 20.7071C21.5196 20.8946 21.2652 21 21 21H17V19ZM10.2 12L13 16H10.6L9.00002 13.714L7.40002 16H5.00002L7.80002 12L5.00002 8H7.40002L9.00002 10.286L10.6 8H13L10.2 12Z" fill="#2F80ED"/>
</svg>
