<svg width="97" height="96" viewBox="0 0 97 96" fill="none" xmlns="http://www.w3.org/2000/svg">
<path fill-rule="evenodd" clip-rule="evenodd" d="M45.4667 13.6002C47.0248 11.0402 50.7001 11.0402 52.2582 13.6002L67.0796 37.9202C68.7175 40.5602 66.7999 44.0002 63.6839 44.0002H34.0011C30.885 44.0002 28.9674 40.5602 30.6054 37.9202L45.4667 13.6002ZM70.8345 88C60.9058 88 52.8571 79.9412 52.8571 70C52.8571 60.0589 60.9058 52 70.8345 52C80.7632 52 88.8119 60.0589 88.8119 70C88.8119 79.9412 80.7632 88 70.8345 88ZM16.9022 86C14.705 86 12.9072 84.2 12.9072 82V58C12.9072 55.8 14.705 54 16.9022 54H40.8721C43.0694 54 44.8671 55.8 44.8671 58V82C44.8671 84.2 43.0694 86 40.8721 86H16.9022Z" fill="#F2C94C"/>
</svg>
