<svg width="97" height="96" viewBox="0 0 97 96" fill="none" xmlns="http://www.w3.org/2000/svg">
<path fill-rule="evenodd" clip-rule="evenodd" d="M16.5498 80H80.4695C84.864 80 88.4595 76.4 88.4595 72C88.4595 67.6 84.864 64 80.4695 64H16.5498C12.1553 64 8.55981 67.6 8.55981 72C8.55981 76.4 12.1553 80 16.5498 80ZM16.5498 68H24.5398V76H16.5498V68ZM8.55981 24C8.55981 28.4 12.1553 32 16.5498 32H80.4695C84.864 32 88.4595 28.4 88.4595 24C88.4595 19.6 84.864 16 80.4695 16H16.5498C12.1553 16 8.55981 19.6 8.55981 24ZM24.5398 28H16.5498V20H24.5398V28ZM16.5498 56H80.4695C84.864 56 88.4595 52.4 88.4595 48C88.4595 43.6 84.864 40 80.4695 40H16.5498C12.1553 40 8.55981 43.6 8.55981 48C8.55981 52.4 12.1553 56 16.5498 56ZM16.5498 44H24.5398V52H16.5498V44Z" fill="#F2C94C"/>
</svg>
