<svg width="18" height="19" viewBox="0 0 18 19" fill="none" xmlns="http://www.w3.org/2000/svg">
<path fill-rule="evenodd" clip-rule="evenodd" d="M16.4926 19H1.28666C0.584845 19 0 18.4152 0 17.7134V17.1285C0 14.3213 1.75453 11.8064 4.50331 10.4028C3.85998 9.29159 3.50907 8.00493 3.50907 6.6013C3.50907 2.97527 5.90693 0.0510406 8.88964 0.0510406C11.8724 0.0510406 14.2702 2.97527 14.2702 6.6013C14.2702 7.94645 13.9193 9.29159 13.276 10.4028C16.0832 11.7479 17.7793 14.3213 17.7793 17.1285V17.7134C17.7793 18.4152 17.1944 19 16.4926 19ZM8.88964 11.1631C10.7027 11.1631 12.2817 9.05765 12.2817 6.6013C12.2817 4.14496 10.7027 2.03951 8.88964 2.03951C7.07662 2.03951 5.49754 4.14496 5.49754 6.6013C5.49754 9.05765 7.07662 11.1631 8.88964 11.1631ZM15.7908 17.0115C15.7323 14.9061 14.2702 12.9176 11.9308 11.9819C11.0536 12.7422 10.0008 13.1516 8.88964 13.1516C7.77844 13.1516 6.72572 12.7422 5.84845 11.9819C3.56755 12.9176 2.04696 14.9061 1.98847 17.0115H15.7908Z" fill="#2F80ED"/>
</svg>
