<svg width="25" height="22" viewBox="0 0 25 22" fill="none" xmlns="http://www.w3.org/2000/svg">
<path opacity="0.5" d="M23.9804 5.41151C23.8834 7.55667 22.3859 10.4966 19.4927 14.2204C16.4984 18.1168 13.971 20.0619 11.8939 20.0619C10.6013 20.0619 9.53076 18.8765 8.63488 16.5059L6.87681 9.9803C6.21882 7.61305 5.51614 6.42771 4.76121 6.42771C4.5962 6.42771 4.01934 6.77149 3.03477 7.46248L2 6.12656C3.07691 5.17977 4.14654 4.22473 5.20881 3.26153C6.65542 2.00469 7.7445 1.34945 8.46781 1.28138C10.1791 1.11637 11.2318 2.2914 11.6299 4.79821C12.0561 7.50511 12.3497 9.18823 12.5182 9.8476C13.0125 12.0925 13.5557 13.2173 14.147 13.2173C14.6056 13.2173 15.2966 12.4864 16.2241 11.0288C17.1447 9.5712 17.6349 8.46493 17.6989 7.70175C17.8316 6.44834 17.3365 5.81441 16.22 5.81441C15.694 5.81441 15.1494 5.92649 14.5898 6.17263C15.6789 2.62761 17.7381 0.894289 20.7887 1.00498C23.0556 1.0593 24.1158 2.53066 23.99 5.40257L23.9804 5.41151Z" stroke="black" stroke-width="2"/>
</svg>
