<svg width="24" height="18" viewBox="0 0 24 18" fill="none" xmlns="http://www.w3.org/2000/svg">
<path opacity="0.5" d="M22.5407 3.37125C22.4129 2.91443 22.1694 2.49834 21.8336 2.16328C21.4978 1.82822 21.0812 1.58553 20.6241 1.45873C18.9082 1.00002 12.0105 1.00002 12.0105 1.00002C12.0105 1.00002 5.1258 0.989019 3.39208 1.45873C2.93571 1.58609 2.51992 1.82903 2.18489 2.16406C1.84986 2.49909 1.60692 2.91489 1.47955 3.37125C1.15372 5.12782 0.993235 6.91106 1.00022 8.69758C0.997039 10.4755 1.15749 12.25 1.47955 13.9985C1.60733 14.4551 1.85034 14.8712 2.18526 15.2068C2.52017 15.5425 2.93575 15.7864 3.39208 15.9151C5.10792 16.3738 12.0105 16.3738 12.0105 16.3738C12.0105 16.3738 18.891 16.3738 20.6241 15.9151C21.0811 15.7869 21.4975 15.5433 21.8332 15.2076C22.1689 14.8719 22.4125 14.4555 22.5407 13.9985C22.8564 12.251 23.0104 10.4739 22.9994 8.69758C23.0104 6.90953 22.8598 5.12973 22.5407 3.37125ZM9.80706 11.9897V5.39106L15.5488 8.69758L9.80706 11.9897Z" stroke="black" stroke-width="2"/>
</svg>
